<mxfile host="app.diagrams.net" modified="2021-12-08T10:03:37.570Z" agent="5.0 (Macintosh; Intel Mac OS X 10_15_7) AppleWebKit/537.36 (KHTML, like Gecko) Chrome/96.0.4664.55 Safari/537.36" etag="XbQrJcb0VPWtoqVD8mGf" version="15.9.1" type="github" pages="3">
  <diagram id="8iqukqCRR8madebPJjhH" name="System Overview">
    <mxGraphModel dx="1298" dy="834" grid="0" gridSize="10" guides="1" tooltips="1" connect="1" arrows="1" fold="1" page="0" pageScale="1" pageWidth="850" pageHeight="1100" math="0" shadow="0">
      <root>
        <mxCell id="CUMwVMc6Fo68mhjrYJwK-0" />
        <mxCell id="CUMwVMc6Fo68mhjrYJwK-1" parent="CUMwVMc6Fo68mhjrYJwK-0" />
        <mxCell id="WFst9p2zd72UTmqVug1f-0" value="user" style="shape=umlActor;verticalLabelPosition=bottom;verticalAlign=top;html=1;outlineConnect=0;" parent="CUMwVMc6Fo68mhjrYJwK-1" vertex="1">
          <mxGeometry x="80" y="390" width="30" height="60" as="geometry" />
        </mxCell>
        <mxCell id="WFst9p2zd72UTmqVug1f-1" value="" style="rounded=0;whiteSpace=wrap;html=1;" parent="CUMwVMc6Fo68mhjrYJwK-1" vertex="1">
          <mxGeometry x="200" y="290" width="130" height="280" as="geometry" />
        </mxCell>
        <mxCell id="WFst9p2zd72UTmqVug1f-2" value="Frontend" style="text;html=1;strokeColor=none;fillColor=none;align=center;verticalAlign=middle;whiteSpace=wrap;rounded=0;" parent="CUMwVMc6Fo68mhjrYJwK-1" vertex="1">
          <mxGeometry x="210" y="290" width="60" height="30" as="geometry" />
        </mxCell>
        <mxCell id="WFst9p2zd72UTmqVug1f-3" value="/" style="rounded=0;whiteSpace=wrap;html=1;" parent="CUMwVMc6Fo68mhjrYJwK-1" vertex="1">
          <mxGeometry x="220" y="380" width="80" height="30" as="geometry" />
        </mxCell>
        <mxCell id="WFst9p2zd72UTmqVug1f-4" value="/welcome" style="rounded=0;whiteSpace=wrap;html=1;" parent="CUMwVMc6Fo68mhjrYJwK-1" vertex="1">
          <mxGeometry x="220" y="420" width="80" height="30" as="geometry" />
        </mxCell>
        <mxCell id="WFst9p2zd72UTmqVug1f-5" value="" style="rounded=0;whiteSpace=wrap;html=1;" parent="CUMwVMc6Fo68mhjrYJwK-1" vertex="1">
          <mxGeometry x="410" y="290" width="150" height="285" as="geometry" />
        </mxCell>
        <mxCell id="WFst9p2zd72UTmqVug1f-6" value="HTTP Server" style="text;html=1;strokeColor=none;fillColor=none;align=center;verticalAlign=middle;whiteSpace=wrap;rounded=0;" parent="CUMwVMc6Fo68mhjrYJwK-1" vertex="1">
          <mxGeometry x="410" y="290" width="90" height="30" as="geometry" />
        </mxCell>
        <mxCell id="WFst9p2zd72UTmqVug1f-7" value="POST /api/login" style="rounded=0;whiteSpace=wrap;html=1;" parent="CUMwVMc6Fo68mhjrYJwK-1" vertex="1">
          <mxGeometry x="425" y="370" width="100" height="30" as="geometry" />
        </mxCell>
        <mxCell id="WFst9p2zd72UTmqVug1f-8" value="GET /api/profile" style="rounded=0;whiteSpace=wrap;html=1;" parent="CUMwVMc6Fo68mhjrYJwK-1" vertex="1">
          <mxGeometry x="425" y="450" width="100" height="30" as="geometry" />
        </mxCell>
        <mxCell id="WFst9p2zd72UTmqVug1f-9" value="POST /api/register" style="rounded=0;whiteSpace=wrap;html=1;" parent="CUMwVMc6Fo68mhjrYJwK-1" vertex="1">
          <mxGeometry x="425" y="330" width="110" height="30" as="geometry" />
        </mxCell>
        <mxCell id="WFst9p2zd72UTmqVug1f-11" value="POST /api/logout" style="rounded=0;whiteSpace=wrap;html=1;" parent="CUMwVMc6Fo68mhjrYJwK-1" vertex="1">
          <mxGeometry x="425" y="407" width="100" height="30" as="geometry" />
        </mxCell>
        <mxCell id="WFst9p2zd72UTmqVug1f-12" value="" style="rounded=0;whiteSpace=wrap;html=1;" parent="CUMwVMc6Fo68mhjrYJwK-1" vertex="1">
          <mxGeometry x="640" y="290" width="140" height="280" as="geometry" />
        </mxCell>
        <mxCell id="WFst9p2zd72UTmqVug1f-13" value="RPC Server" style="text;html=1;strokeColor=none;fillColor=none;align=center;verticalAlign=middle;whiteSpace=wrap;rounded=0;" parent="CUMwVMc6Fo68mhjrYJwK-1" vertex="1">
          <mxGeometry x="640" y="290" width="90" height="30" as="geometry" />
        </mxCell>
        <mxCell id="WFst9p2zd72UTmqVug1f-14" value="SetSession" style="rounded=0;whiteSpace=wrap;html=1;" parent="CUMwVMc6Fo68mhjrYJwK-1" vertex="1">
          <mxGeometry x="670" y="370" width="80" height="30" as="geometry" />
        </mxCell>
        <mxCell id="WFst9p2zd72UTmqVug1f-16" value="GetSession" style="rounded=0;whiteSpace=wrap;html=1;" parent="CUMwVMc6Fo68mhjrYJwK-1" vertex="1">
          <mxGeometry x="670" y="330" width="80" height="30" as="geometry" />
        </mxCell>
        <mxCell id="WFst9p2zd72UTmqVug1f-17" value="Register" style="rounded=0;whiteSpace=wrap;html=1;" parent="CUMwVMc6Fo68mhjrYJwK-1" vertex="1">
          <mxGeometry x="670" y="410" width="80" height="30" as="geometry" />
        </mxCell>
        <mxCell id="WFst9p2zd72UTmqVug1f-18" value="" style="rounded=0;whiteSpace=wrap;html=1;" parent="CUMwVMc6Fo68mhjrYJwK-1" vertex="1">
          <mxGeometry x="880" y="320" width="250" height="60" as="geometry" />
        </mxCell>
        <mxCell id="WFst9p2zd72UTmqVug1f-19" value="Redis" style="text;html=1;strokeColor=none;fillColor=none;align=center;verticalAlign=middle;whiteSpace=wrap;rounded=0;" parent="CUMwVMc6Fo68mhjrYJwK-1" vertex="1">
          <mxGeometry x="860" y="320" width="90" height="30" as="geometry" />
        </mxCell>
        <mxCell id="WFst9p2zd72UTmqVug1f-22" value="token:{token} =&amp;gt; user info&lt;br&gt;with expiration" style="rounded=0;whiteSpace=wrap;html=1;" parent="CUMwVMc6Fo68mhjrYJwK-1" vertex="1">
          <mxGeometry x="930" y="330" width="150" height="30" as="geometry" />
        </mxCell>
        <mxCell id="WFst9p2zd72UTmqVug1f-25" value="" style="rounded=0;whiteSpace=wrap;html=1;" parent="CUMwVMc6Fo68mhjrYJwK-1" vertex="1">
          <mxGeometry x="880" y="450" width="250" height="60" as="geometry" />
        </mxCell>
        <mxCell id="WFst9p2zd72UTmqVug1f-26" value="MySQL" style="text;html=1;strokeColor=none;fillColor=none;align=center;verticalAlign=middle;whiteSpace=wrap;rounded=0;" parent="CUMwVMc6Fo68mhjrYJwK-1" vertex="1">
          <mxGeometry x="860" y="450" width="90" height="30" as="geometry" />
        </mxCell>
        <mxCell id="WFst9p2zd72UTmqVug1f-27" value="user table(user_name, nickname,avatar)" style="rounded=0;whiteSpace=wrap;html=1;" parent="CUMwVMc6Fo68mhjrYJwK-1" vertex="1">
          <mxGeometry x="930" y="460" width="150" height="30" as="geometry" />
        </mxCell>
        <mxCell id="WFst9p2zd72UTmqVug1f-28" value="PUT /api/profile" style="rounded=0;whiteSpace=wrap;html=1;" parent="CUMwVMc6Fo68mhjrYJwK-1" vertex="1">
          <mxGeometry x="425" y="490" width="100" height="30" as="geometry" />
        </mxCell>
        <mxCell id="WFst9p2zd72UTmqVug1f-29" value="" style="shape=flexArrow;endArrow=classic;startArrow=classic;html=1;rounded=0;" parent="CUMwVMc6Fo68mhjrYJwK-1" edge="1">
          <mxGeometry width="100" height="100" relative="1" as="geometry">
            <mxPoint x="788" y="423" as="sourcePoint" />
            <mxPoint x="858" y="423" as="targetPoint" />
          </mxGeometry>
        </mxCell>
        <mxCell id="WFst9p2zd72UTmqVug1f-30" value="" style="shape=flexArrow;endArrow=classic;startArrow=classic;html=1;rounded=0;" parent="CUMwVMc6Fo68mhjrYJwK-1" edge="1">
          <mxGeometry width="100" height="100" relative="1" as="geometry">
            <mxPoint x="331" y="424.5" as="sourcePoint" />
            <mxPoint x="401" y="424.5" as="targetPoint" />
          </mxGeometry>
        </mxCell>
        <mxCell id="WFst9p2zd72UTmqVug1f-31" value="" style="shape=flexArrow;endArrow=classic;startArrow=classic;html=1;rounded=0;" parent="CUMwVMc6Fo68mhjrYJwK-1" edge="1">
          <mxGeometry width="100" height="100" relative="1" as="geometry">
            <mxPoint x="567" y="422" as="sourcePoint" />
            <mxPoint x="637" y="422" as="targetPoint" />
          </mxGeometry>
        </mxCell>
        <mxCell id="WFst9p2zd72UTmqVug1f-33" value="" style="shape=flexArrow;endArrow=classic;startArrow=classic;html=1;rounded=0;" parent="CUMwVMc6Fo68mhjrYJwK-1" edge="1">
          <mxGeometry width="100" height="100" relative="1" as="geometry">
            <mxPoint x="121" y="430.5" as="sourcePoint" />
            <mxPoint x="191" y="430.5" as="targetPoint" />
          </mxGeometry>
        </mxCell>
        <mxCell id="WFst9p2zd72UTmqVug1f-34" value="Login" style="rounded=0;whiteSpace=wrap;html=1;" parent="CUMwVMc6Fo68mhjrYJwK-1" vertex="1">
          <mxGeometry x="670" y="447" width="80" height="30" as="geometry" />
        </mxCell>
        <mxCell id="45E-AgB633_d3qU6y5hy-0" value="Login State Machine" style="text;html=1;strokeColor=none;fillColor=none;align=center;verticalAlign=middle;whiteSpace=wrap;rounded=0;" parent="CUMwVMc6Fo68mhjrYJwK-1" vertex="1">
          <mxGeometry x="94" y="683" width="163" height="30" as="geometry" />
        </mxCell>
        <mxCell id="45E-AgB633_d3qU6y5hy-1" value="not login" style="ellipse;whiteSpace=wrap;html=1;aspect=fixed;" parent="CUMwVMc6Fo68mhjrYJwK-1" vertex="1">
          <mxGeometry x="200" y="764" width="80" height="80" as="geometry" />
        </mxCell>
        <mxCell id="45E-AgB633_d3qU6y5hy-3" value="" style="curved=1;endArrow=classic;html=1;rounded=0;exitX=1;exitY=0.5;exitDx=0;exitDy=0;entryX=0.5;entryY=0;entryDx=0;entryDy=0;" parent="CUMwVMc6Fo68mhjrYJwK-1" source="45E-AgB633_d3qU6y5hy-1" target="45E-AgB633_d3qU6y5hy-5" edge="1">
          <mxGeometry width="50" height="50" relative="1" as="geometry">
            <mxPoint x="352" y="827" as="sourcePoint" />
            <mxPoint x="402" y="870" as="targetPoint" />
            <Array as="points">
              <mxPoint x="342" y="836" />
            </Array>
          </mxGeometry>
        </mxCell>
        <mxCell id="45E-AgB633_d3qU6y5hy-4" value="/api/login" style="text;html=1;strokeColor=none;fillColor=none;align=center;verticalAlign=middle;whiteSpace=wrap;rounded=0;" parent="CUMwVMc6Fo68mhjrYJwK-1" vertex="1">
          <mxGeometry x="300" y="801" width="156" height="30" as="geometry" />
        </mxCell>
        <mxCell id="45E-AgB633_d3qU6y5hy-5" value="login" style="ellipse;whiteSpace=wrap;html=1;aspect=fixed;" parent="CUMwVMc6Fo68mhjrYJwK-1" vertex="1">
          <mxGeometry x="414" y="852" width="80" height="80" as="geometry" />
        </mxCell>
        <mxCell id="45E-AgB633_d3qU6y5hy-7" value="not registered" style="ellipse;whiteSpace=wrap;html=1;aspect=fixed;" parent="CUMwVMc6Fo68mhjrYJwK-1" vertex="1">
          <mxGeometry x="67" y="906" width="80" height="80" as="geometry" />
        </mxCell>
        <mxCell id="45E-AgB633_d3qU6y5hy-8" value="" style="curved=1;endArrow=classic;html=1;rounded=0;exitX=1;exitY=0.5;exitDx=0;exitDy=0;entryX=0;entryY=0.5;entryDx=0;entryDy=0;" parent="CUMwVMc6Fo68mhjrYJwK-1" source="45E-AgB633_d3qU6y5hy-7" target="45E-AgB633_d3qU6y5hy-11" edge="1">
          <mxGeometry width="50" height="50" relative="1" as="geometry">
            <mxPoint x="248" y="1071" as="sourcePoint" />
            <mxPoint x="336" y="1017" as="targetPoint" />
            <Array as="points">
              <mxPoint x="212" y="951" />
            </Array>
          </mxGeometry>
        </mxCell>
        <mxCell id="45E-AgB633_d3qU6y5hy-10" value="/api/register" style="text;html=1;strokeColor=none;fillColor=none;align=center;verticalAlign=middle;whiteSpace=wrap;rounded=0;" parent="CUMwVMc6Fo68mhjrYJwK-1" vertex="1">
          <mxGeometry x="121" y="959" width="156" height="30" as="geometry" />
        </mxCell>
        <mxCell id="45E-AgB633_d3qU6y5hy-11" value="registered" style="ellipse;whiteSpace=wrap;html=1;aspect=fixed;" parent="CUMwVMc6Fo68mhjrYJwK-1" vertex="1">
          <mxGeometry x="280" y="917" width="80" height="80" as="geometry" />
        </mxCell>
        <mxCell id="45E-AgB633_d3qU6y5hy-12" value="" style="curved=1;endArrow=classic;html=1;rounded=0;exitX=1;exitY=1;exitDx=0;exitDy=0;entryX=0.5;entryY=1;entryDx=0;entryDy=0;" parent="CUMwVMc6Fo68mhjrYJwK-1" source="45E-AgB633_d3qU6y5hy-11" target="45E-AgB633_d3qU6y5hy-5" edge="1">
          <mxGeometry width="50" height="50" relative="1" as="geometry">
            <mxPoint x="469" y="1046" as="sourcePoint" />
            <mxPoint x="519" y="996" as="targetPoint" />
            <Array as="points">
              <mxPoint x="469" y="996" />
            </Array>
          </mxGeometry>
        </mxCell>
        <mxCell id="45E-AgB633_d3qU6y5hy-13" value="automatic transfer" style="text;html=1;strokeColor=none;fillColor=none;align=center;verticalAlign=middle;whiteSpace=wrap;rounded=0;" parent="CUMwVMc6Fo68mhjrYJwK-1" vertex="1">
          <mxGeometry x="369" y="989" width="156" height="30" as="geometry" />
        </mxCell>
        <mxCell id="45E-AgB633_d3qU6y5hy-14" value="" style="curved=1;endArrow=classic;html=1;rounded=0;exitX=1;exitY=0.5;exitDx=0;exitDy=0;entryX=0.5;entryY=0;entryDx=0;entryDy=0;" parent="CUMwVMc6Fo68mhjrYJwK-1" source="45E-AgB633_d3qU6y5hy-5" target="45E-AgB633_d3qU6y5hy-1" edge="1">
          <mxGeometry width="50" height="50" relative="1" as="geometry">
            <mxPoint x="521" y="838" as="sourcePoint" />
            <mxPoint x="571" y="788" as="targetPoint" />
            <Array as="points">
              <mxPoint x="571" y="838" />
              <mxPoint x="437" y="741" />
            </Array>
          </mxGeometry>
        </mxCell>
        <mxCell id="45E-AgB633_d3qU6y5hy-15" value="/api/logout or&amp;nbsp; token expired" style="text;html=1;strokeColor=none;fillColor=none;align=center;verticalAlign=middle;whiteSpace=wrap;rounded=0;" parent="CUMwVMc6Fo68mhjrYJwK-1" vertex="1">
          <mxGeometry x="398" y="725" width="166" height="30" as="geometry" />
        </mxCell>
        <mxCell id="oLxfs-vkXtXKLqz3vwmt-0" value="POST /api/upload" style="rounded=0;whiteSpace=wrap;html=1;" vertex="1" parent="CUMwVMc6Fo68mhjrYJwK-1">
          <mxGeometry x="425" y="528" width="100" height="30" as="geometry" />
        </mxCell>
        <mxCell id="oLxfs-vkXtXKLqz3vwmt-1" value="Logout" style="rounded=0;whiteSpace=wrap;html=1;" vertex="1" parent="CUMwVMc6Fo68mhjrYJwK-1">
          <mxGeometry x="670" y="484" width="80" height="30" as="geometry" />
        </mxCell>
        <mxCell id="oLxfs-vkXtXKLqz3vwmt-2" value="UpdateProfie" style="rounded=0;whiteSpace=wrap;html=1;" vertex="1" parent="CUMwVMc6Fo68mhjrYJwK-1">
          <mxGeometry x="670" y="520" width="80" height="30" as="geometry" />
        </mxCell>
      </root>
    </mxGraphModel>
  </diagram>
  <diagram id="pBAth8YkjbCxuYe8apKu" name="Flow Design">
    <mxGraphModel dx="1298" dy="1234" grid="0" gridSize="10" guides="1" tooltips="1" connect="1" arrows="1" fold="1" page="0" pageScale="1" pageWidth="850" pageHeight="1100" math="0" shadow="0">
      <root>
        <mxCell id="0" />
        <mxCell id="1" parent="0" />
        <mxCell id="lBitf8_O0CGpP3Guj1uh-10" value="Flow2&amp;nbsp; Login Flow" style="text;html=1;strokeColor=none;fillColor=none;align=center;verticalAlign=middle;whiteSpace=wrap;rounded=0;" parent="1" vertex="1">
          <mxGeometry x="140" y="849" width="200" height="30" as="geometry" />
        </mxCell>
        <mxCell id="lBitf8_O0CGpP3Guj1uh-11" value="" style="shape=umlLifeline;participant=umlActor;perimeter=lifelinePerimeter;whiteSpace=wrap;html=1;container=1;collapsible=0;recursiveResize=0;verticalAlign=top;spacingTop=36;outlineConnect=0;" parent="1" vertex="1">
          <mxGeometry x="190" y="900" width="20" height="790" as="geometry" />
        </mxCell>
        <mxCell id="lBitf8_O0CGpP3Guj1uh-27" value="" style="html=1;points=[];perimeter=orthogonalPerimeter;" parent="lBitf8_O0CGpP3Guj1uh-11" vertex="1">
          <mxGeometry x="5" y="90" width="10" height="140" as="geometry" />
        </mxCell>
        <mxCell id="lBitf8_O0CGpP3Guj1uh-28" value="" style="html=1;points=[];perimeter=orthogonalPerimeter;" parent="lBitf8_O0CGpP3Guj1uh-11" vertex="1">
          <mxGeometry x="5" y="310" width="10" height="350" as="geometry" />
        </mxCell>
        <mxCell id="lBitf8_O0CGpP3Guj1uh-32" value="fill in username/password" style="edgeStyle=orthogonalEdgeStyle;html=1;align=left;spacingLeft=2;endArrow=block;rounded=0;" parent="lBitf8_O0CGpP3Guj1uh-11" source="lBitf8_O0CGpP3Guj1uh-27" target="lBitf8_O0CGpP3Guj1uh-28" edge="1">
          <mxGeometry x="0.0452" y="-25" relative="1" as="geometry">
            <mxPoint x="35" y="235" as="sourcePoint" />
            <Array as="points">
              <mxPoint x="65" y="225" />
              <mxPoint x="65" y="327" />
            </Array>
            <mxPoint x="40" y="255" as="targetPoint" />
            <mxPoint as="offset" />
          </mxGeometry>
        </mxCell>
        <mxCell id="lBitf8_O0CGpP3Guj1uh-13" value="HTTP Server" style="shape=umlLifeline;perimeter=lifelinePerimeter;whiteSpace=wrap;html=1;container=1;collapsible=0;recursiveResize=0;outlineConnect=0;" parent="1" vertex="1">
          <mxGeometry x="360" y="910" width="100" height="780" as="geometry" />
        </mxCell>
        <mxCell id="lBitf8_O0CGpP3Guj1uh-17" value="" style="html=1;points=[];perimeter=orthogonalPerimeter;" parent="lBitf8_O0CGpP3Guj1uh-13" vertex="1">
          <mxGeometry x="45" y="80" width="10" height="140" as="geometry" />
        </mxCell>
        <mxCell id="lBitf8_O0CGpP3Guj1uh-33" value="" style="html=1;points=[];perimeter=orthogonalPerimeter;" parent="lBitf8_O0CGpP3Guj1uh-13" vertex="1">
          <mxGeometry x="45" y="350" width="10" height="270" as="geometry" />
        </mxCell>
        <mxCell id="lBitf8_O0CGpP3Guj1uh-18" value="TCP Server" style="shape=umlLifeline;perimeter=lifelinePerimeter;whiteSpace=wrap;html=1;container=1;collapsible=0;recursiveResize=0;outlineConnect=0;" parent="1" vertex="1">
          <mxGeometry x="520" y="910" width="100" height="780" as="geometry" />
        </mxCell>
        <mxCell id="lBitf8_O0CGpP3Guj1uh-20" value="" style="html=1;points=[];perimeter=orthogonalPerimeter;" parent="lBitf8_O0CGpP3Guj1uh-18" vertex="1">
          <mxGeometry x="45" y="80" width="10" height="150" as="geometry" />
        </mxCell>
        <mxCell id="lBitf8_O0CGpP3Guj1uh-23" value="get token" style="html=1;verticalAlign=bottom;endArrow=block;rounded=0;entryX=0;entryY=0.175;entryDx=0;entryDy=0;entryPerimeter=0;" parent="lBitf8_O0CGpP3Guj1uh-18" target="lBitf8_O0CGpP3Guj1uh-22" edge="1">
          <mxGeometry width="80" relative="1" as="geometry">
            <mxPoint x="55" y="130" as="sourcePoint" />
            <mxPoint x="135" y="130" as="targetPoint" />
          </mxGeometry>
        </mxCell>
        <mxCell id="lBitf8_O0CGpP3Guj1uh-37" value="" style="html=1;points=[];perimeter=orthogonalPerimeter;" parent="lBitf8_O0CGpP3Guj1uh-18" vertex="1">
          <mxGeometry x="45" y="370" width="10" height="230" as="geometry" />
        </mxCell>
        <mxCell id="lBitf8_O0CGpP3Guj1uh-46" value="check password ok" style="edgeStyle=orthogonalEdgeStyle;html=1;align=left;spacingLeft=2;endArrow=block;rounded=0;exitX=0.9;exitY=0.304;exitDx=0;exitDy=0;exitPerimeter=0;" parent="lBitf8_O0CGpP3Guj1uh-18" source="lBitf8_O0CGpP3Guj1uh-37" edge="1">
          <mxGeometry relative="1" as="geometry">
            <mxPoint x="60" y="440" as="sourcePoint" />
            <Array as="points">
              <mxPoint x="54" y="445" />
              <mxPoint x="130" y="445" />
              <mxPoint x="130" y="470" />
            </Array>
            <mxPoint x="58" y="470" as="targetPoint" />
          </mxGeometry>
        </mxCell>
        <mxCell id="lBitf8_O0CGpP3Guj1uh-19" value="GetSession" style="html=1;verticalAlign=bottom;endArrow=block;rounded=0;exitX=1.1;exitY=0.363;exitDx=0;exitDy=0;exitPerimeter=0;" parent="1" edge="1">
          <mxGeometry width="80" relative="1" as="geometry">
            <mxPoint x="416" y="1016.8199999999999" as="sourcePoint" />
            <mxPoint x="565" y="1016.8199999999999" as="targetPoint" />
          </mxGeometry>
        </mxCell>
        <mxCell id="lBitf8_O0CGpP3Guj1uh-21" value="Redis" style="shape=umlLifeline;perimeter=lifelinePerimeter;whiteSpace=wrap;html=1;container=1;collapsible=0;recursiveResize=0;outlineConnect=0;" parent="1" vertex="1">
          <mxGeometry x="720" y="910" width="100" height="780" as="geometry" />
        </mxCell>
        <mxCell id="lBitf8_O0CGpP3Guj1uh-22" value="" style="html=1;points=[];perimeter=orthogonalPerimeter;" parent="lBitf8_O0CGpP3Guj1uh-21" vertex="1">
          <mxGeometry x="45" y="115" width="10" height="80" as="geometry" />
        </mxCell>
        <mxCell id="lBitf8_O0CGpP3Guj1uh-24" value="token not existed" style="html=1;verticalAlign=bottom;endArrow=open;dashed=1;endSize=8;rounded=0;entryX=1.2;entryY=0.6;entryDx=0;entryDy=0;entryPerimeter=0;" parent="lBitf8_O0CGpP3Guj1uh-21" target="lBitf8_O0CGpP3Guj1uh-20" edge="1">
          <mxGeometry relative="1" as="geometry">
            <mxPoint x="45" y="170" as="sourcePoint" />
            <mxPoint x="-35" y="170" as="targetPoint" />
          </mxGeometry>
        </mxCell>
        <mxCell id="lBitf8_O0CGpP3Guj1uh-47" value="" style="html=1;points=[];perimeter=orthogonalPerimeter;" parent="lBitf8_O0CGpP3Guj1uh-21" vertex="1">
          <mxGeometry x="45" y="500" width="10" height="80" as="geometry" />
        </mxCell>
        <mxCell id="lBitf8_O0CGpP3Guj1uh-25" value="invalid" style="html=1;verticalAlign=bottom;endArrow=open;dashed=1;endSize=8;rounded=0;exitX=0.1;exitY=0.77;exitDx=0;exitDy=0;exitPerimeter=0;entryX=1.1;entryY=0.825;entryDx=0;entryDy=0;entryPerimeter=0;" parent="1" source="lBitf8_O0CGpP3Guj1uh-20" target="lBitf8_O0CGpP3Guj1uh-17" edge="1">
          <mxGeometry relative="1" as="geometry">
            <mxPoint x="540" y="1070" as="sourcePoint" />
            <mxPoint x="460" y="1070" as="targetPoint" />
          </mxGeometry>
        </mxCell>
        <mxCell id="lBitf8_O0CGpP3Guj1uh-26" value="Redirect to /login, with cookie set" style="html=1;verticalAlign=bottom;endArrow=open;dashed=1;endSize=8;rounded=0;exitX=0;exitY=0.857;exitDx=0;exitDy=0;exitPerimeter=0;" parent="1" source="lBitf8_O0CGpP3Guj1uh-17" target="lBitf8_O0CGpP3Guj1uh-27" edge="1">
          <mxGeometry relative="1" as="geometry">
            <mxPoint x="380" y="1110" as="sourcePoint" />
            <mxPoint x="300" y="1110" as="targetPoint" />
          </mxGeometry>
        </mxCell>
        <mxCell id="lBitf8_O0CGpP3Guj1uh-16" value="visit root&lt;br&gt;with/without token" style="html=1;verticalAlign=bottom;endArrow=block;rounded=0;" parent="1" source="lBitf8_O0CGpP3Guj1uh-27" edge="1">
          <mxGeometry width="80" relative="1" as="geometry">
            <mxPoint x="210" y="1010" as="sourcePoint" />
            <mxPoint x="405" y="1003.94" as="targetPoint" />
          </mxGeometry>
        </mxCell>
        <mxCell id="lBitf8_O0CGpP3Guj1uh-34" value="login with username/hash(password)" style="html=1;verticalAlign=bottom;endArrow=block;rounded=0;entryX=-0.1;entryY=0.091;entryDx=0;entryDy=0;entryPerimeter=0;" parent="1" source="lBitf8_O0CGpP3Guj1uh-28" target="lBitf8_O0CGpP3Guj1uh-33" edge="1">
          <mxGeometry width="80" relative="1" as="geometry">
            <mxPoint x="200" y="1270" as="sourcePoint" />
            <mxPoint x="280" y="1270" as="targetPoint" />
          </mxGeometry>
        </mxCell>
        <mxCell id="lBitf8_O0CGpP3Guj1uh-38" value="Login" style="html=1;verticalAlign=bottom;endArrow=block;entryX=0;entryY=0;rounded=0;" parent="1" source="lBitf8_O0CGpP3Guj1uh-13" target="lBitf8_O0CGpP3Guj1uh-37" edge="1">
          <mxGeometry relative="1" as="geometry">
            <mxPoint x="495" y="1290" as="sourcePoint" />
          </mxGeometry>
        </mxCell>
        <mxCell id="lBitf8_O0CGpP3Guj1uh-39" value="return" style="html=1;verticalAlign=bottom;endArrow=open;dashed=1;endSize=8;exitX=0;exitY=0.95;rounded=0;entryX=1.1;entryY=0.891;entryDx=0;entryDy=0;entryPerimeter=0;" parent="1" source="lBitf8_O0CGpP3Guj1uh-37" target="lBitf8_O0CGpP3Guj1uh-33" edge="1">
          <mxGeometry relative="1" as="geometry">
            <mxPoint x="495" y="1366" as="targetPoint" />
          </mxGeometry>
        </mxCell>
        <mxCell id="lBitf8_O0CGpP3Guj1uh-40" value="MySQL" style="shape=umlLifeline;perimeter=lifelinePerimeter;whiteSpace=wrap;html=1;container=1;collapsible=0;recursiveResize=0;outlineConnect=0;" parent="1" vertex="1">
          <mxGeometry x="890" y="910" width="100" height="770" as="geometry" />
        </mxCell>
        <mxCell id="lBitf8_O0CGpP3Guj1uh-42" value="" style="html=1;points=[];perimeter=orthogonalPerimeter;" parent="lBitf8_O0CGpP3Guj1uh-40" vertex="1">
          <mxGeometry x="45" y="390" width="10" height="30" as="geometry" />
        </mxCell>
        <mxCell id="lBitf8_O0CGpP3Guj1uh-43" value="validate user password&amp;nbsp;" style="html=1;verticalAlign=bottom;endArrow=block;entryX=0;entryY=0;rounded=0;" parent="1" target="lBitf8_O0CGpP3Guj1uh-42" edge="1">
          <mxGeometry relative="1" as="geometry">
            <mxPoint x="580" y="1300" as="sourcePoint" />
          </mxGeometry>
        </mxCell>
        <mxCell id="lBitf8_O0CGpP3Guj1uh-44" value="return" style="html=1;verticalAlign=bottom;endArrow=open;dashed=1;endSize=8;exitX=0;exitY=0.95;rounded=0;entryX=0.9;entryY=0.226;entryDx=0;entryDy=0;entryPerimeter=0;" parent="1" source="lBitf8_O0CGpP3Guj1uh-42" target="lBitf8_O0CGpP3Guj1uh-37" edge="1">
          <mxGeometry relative="1" as="geometry">
            <mxPoint x="865" y="1351" as="targetPoint" />
          </mxGeometry>
        </mxCell>
        <mxCell id="lBitf8_O0CGpP3Guj1uh-48" value="refresh token" style="html=1;verticalAlign=bottom;endArrow=block;entryX=0;entryY=0;rounded=0;exitX=1;exitY=0.565;exitDx=0;exitDy=0;exitPerimeter=0;" parent="1" source="lBitf8_O0CGpP3Guj1uh-37" target="lBitf8_O0CGpP3Guj1uh-47" edge="1">
          <mxGeometry relative="1" as="geometry">
            <mxPoint x="695" y="1410" as="sourcePoint" />
          </mxGeometry>
        </mxCell>
        <mxCell id="lBitf8_O0CGpP3Guj1uh-49" value="return" style="html=1;verticalAlign=bottom;endArrow=open;dashed=1;endSize=8;exitX=0;exitY=0.95;rounded=0;entryX=1.1;entryY=0.896;entryDx=0;entryDy=0;entryPerimeter=0;" parent="1" source="lBitf8_O0CGpP3Guj1uh-47" target="lBitf8_O0CGpP3Guj1uh-37" edge="1">
          <mxGeometry relative="1" as="geometry">
            <mxPoint x="695" y="1486" as="targetPoint" />
          </mxGeometry>
        </mxCell>
        <mxCell id="lBitf8_O0CGpP3Guj1uh-50" value="return" style="html=1;verticalAlign=bottom;endArrow=open;dashed=1;endSize=8;rounded=0;exitX=0;exitY=0.948;exitDx=0;exitDy=0;exitPerimeter=0;" parent="1" source="lBitf8_O0CGpP3Guj1uh-33" target="lBitf8_O0CGpP3Guj1uh-28" edge="1">
          <mxGeometry relative="1" as="geometry">
            <mxPoint x="360" y="1500" as="sourcePoint" />
            <mxPoint x="280" y="1500" as="targetPoint" />
          </mxGeometry>
        </mxCell>
        <mxCell id="OXkeITvEiFGcZiVfPP6o-1" value="Flow4:&amp;nbsp; Update Profile Flow" style="text;html=1;strokeColor=none;fillColor=none;align=center;verticalAlign=middle;whiteSpace=wrap;rounded=0;" parent="1" vertex="1">
          <mxGeometry x="170" y="2363" width="200" height="30" as="geometry" />
        </mxCell>
        <mxCell id="OXkeITvEiFGcZiVfPP6o-2" value="" style="shape=umlLifeline;participant=umlActor;perimeter=lifelinePerimeter;whiteSpace=wrap;html=1;container=1;collapsible=0;recursiveResize=0;verticalAlign=top;spacingTop=36;outlineConnect=0;" parent="1" vertex="1">
          <mxGeometry x="190" y="2443" width="20" height="620" as="geometry" />
        </mxCell>
        <mxCell id="OXkeITvEiFGcZiVfPP6o-3" value="" style="html=1;points=[];perimeter=orthogonalPerimeter;" parent="OXkeITvEiFGcZiVfPP6o-2" vertex="1">
          <mxGeometry x="5" y="90" width="10" height="450" as="geometry" />
        </mxCell>
        <mxCell id="OXkeITvEiFGcZiVfPP6o-6" value="HTTP Server" style="shape=umlLifeline;perimeter=lifelinePerimeter;whiteSpace=wrap;html=1;container=1;collapsible=0;recursiveResize=0;outlineConnect=0;" parent="1" vertex="1">
          <mxGeometry x="360" y="2453" width="100" height="610" as="geometry" />
        </mxCell>
        <mxCell id="OXkeITvEiFGcZiVfPP6o-7" value="" style="html=1;points=[];perimeter=orthogonalPerimeter;" parent="OXkeITvEiFGcZiVfPP6o-6" vertex="1">
          <mxGeometry x="45" y="80" width="10" height="430" as="geometry" />
        </mxCell>
        <mxCell id="OXkeITvEiFGcZiVfPP6o-9" value="TCP Server" style="shape=umlLifeline;perimeter=lifelinePerimeter;whiteSpace=wrap;html=1;container=1;collapsible=0;recursiveResize=0;outlineConnect=0;" parent="1" vertex="1">
          <mxGeometry x="520" y="2453" width="100" height="610" as="geometry" />
        </mxCell>
        <mxCell id="OXkeITvEiFGcZiVfPP6o-10" value="" style="html=1;points=[];perimeter=orthogonalPerimeter;" parent="OXkeITvEiFGcZiVfPP6o-9" vertex="1">
          <mxGeometry x="45" y="80" width="10" height="150" as="geometry" />
        </mxCell>
        <mxCell id="OXkeITvEiFGcZiVfPP6o-11" value="get token" style="html=1;verticalAlign=bottom;endArrow=block;rounded=0;entryX=0;entryY=0.175;entryDx=0;entryDy=0;entryPerimeter=0;" parent="OXkeITvEiFGcZiVfPP6o-9" target="OXkeITvEiFGcZiVfPP6o-16" edge="1">
          <mxGeometry width="80" relative="1" as="geometry">
            <mxPoint x="55" y="130" as="sourcePoint" />
            <mxPoint x="135" y="130" as="targetPoint" />
          </mxGeometry>
        </mxCell>
        <mxCell id="OXkeITvEiFGcZiVfPP6o-32" value="" style="html=1;points=[];perimeter=orthogonalPerimeter;" parent="OXkeITvEiFGcZiVfPP6o-9" vertex="1">
          <mxGeometry x="45" y="280" width="10" height="190" as="geometry" />
        </mxCell>
        <mxCell id="OXkeITvEiFGcZiVfPP6o-14" value="GetSession" style="html=1;verticalAlign=bottom;endArrow=block;rounded=0;exitX=1.1;exitY=0.363;exitDx=0;exitDy=0;exitPerimeter=0;" parent="1" edge="1">
          <mxGeometry width="80" relative="1" as="geometry">
            <mxPoint x="416" y="2559.8199999999997" as="sourcePoint" />
            <mxPoint x="565" y="2559.8199999999997" as="targetPoint" />
          </mxGeometry>
        </mxCell>
        <mxCell id="OXkeITvEiFGcZiVfPP6o-15" value="Redis" style="shape=umlLifeline;perimeter=lifelinePerimeter;whiteSpace=wrap;html=1;container=1;collapsible=0;recursiveResize=0;outlineConnect=0;" parent="1" vertex="1">
          <mxGeometry x="720" y="2453" width="100" height="600" as="geometry" />
        </mxCell>
        <mxCell id="OXkeITvEiFGcZiVfPP6o-16" value="" style="html=1;points=[];perimeter=orthogonalPerimeter;" parent="OXkeITvEiFGcZiVfPP6o-15" vertex="1">
          <mxGeometry x="45" y="115" width="10" height="80" as="geometry" />
        </mxCell>
        <mxCell id="OXkeITvEiFGcZiVfPP6o-17" value="token existed" style="html=1;verticalAlign=bottom;endArrow=open;dashed=1;endSize=8;rounded=0;entryX=1.2;entryY=0.6;entryDx=0;entryDy=0;entryPerimeter=0;" parent="OXkeITvEiFGcZiVfPP6o-15" target="OXkeITvEiFGcZiVfPP6o-10" edge="1">
          <mxGeometry relative="1" as="geometry">
            <mxPoint x="45" y="170" as="sourcePoint" />
            <mxPoint x="-35" y="170" as="targetPoint" />
          </mxGeometry>
        </mxCell>
        <mxCell id="OXkeITvEiFGcZiVfPP6o-38" value="" style="html=1;points=[];perimeter=orthogonalPerimeter;" parent="OXkeITvEiFGcZiVfPP6o-15" vertex="1">
          <mxGeometry x="45" y="362" width="10" height="25" as="geometry" />
        </mxCell>
        <mxCell id="OXkeITvEiFGcZiVfPP6o-19" value="valid" style="html=1;verticalAlign=bottom;endArrow=open;dashed=1;endSize=8;rounded=0;exitX=0.1;exitY=0.77;exitDx=0;exitDy=0;exitPerimeter=0;" parent="1" source="OXkeITvEiFGcZiVfPP6o-10" target="OXkeITvEiFGcZiVfPP6o-7" edge="1">
          <mxGeometry relative="1" as="geometry">
            <mxPoint x="540" y="2613" as="sourcePoint" />
            <mxPoint x="460" y="2613" as="targetPoint" />
          </mxGeometry>
        </mxCell>
        <mxCell id="OXkeITvEiFGcZiVfPP6o-21" value="update nickname" style="html=1;verticalAlign=bottom;endArrow=block;rounded=0;" parent="1" source="OXkeITvEiFGcZiVfPP6o-3" edge="1">
          <mxGeometry width="80" relative="1" as="geometry">
            <mxPoint x="210" y="2553" as="sourcePoint" />
            <mxPoint x="405" y="2546.94" as="targetPoint" />
          </mxGeometry>
        </mxCell>
        <mxCell id="OXkeITvEiFGcZiVfPP6o-25" value="MySQL" style="shape=umlLifeline;perimeter=lifelinePerimeter;whiteSpace=wrap;html=1;container=1;collapsible=0;recursiveResize=0;outlineConnect=0;" parent="1" vertex="1">
          <mxGeometry x="890" y="2453" width="100" height="600" as="geometry" />
        </mxCell>
        <mxCell id="OXkeITvEiFGcZiVfPP6o-35" value="" style="html=1;points=[];perimeter=orthogonalPerimeter;" parent="OXkeITvEiFGcZiVfPP6o-25" vertex="1">
          <mxGeometry x="45" y="290" width="10" height="30" as="geometry" />
        </mxCell>
        <mxCell id="OXkeITvEiFGcZiVfPP6o-33" value="UpdateProfile" style="html=1;verticalAlign=bottom;endArrow=block;entryX=0;entryY=0;rounded=0;" parent="1" source="OXkeITvEiFGcZiVfPP6o-7" target="OXkeITvEiFGcZiVfPP6o-32" edge="1">
          <mxGeometry relative="1" as="geometry">
            <mxPoint x="495" y="2733" as="sourcePoint" />
          </mxGeometry>
        </mxCell>
        <mxCell id="OXkeITvEiFGcZiVfPP6o-34" value="return" style="html=1;verticalAlign=bottom;endArrow=open;dashed=1;endSize=8;exitX=0;exitY=0.95;rounded=0;" parent="1" source="OXkeITvEiFGcZiVfPP6o-32" target="OXkeITvEiFGcZiVfPP6o-7" edge="1">
          <mxGeometry relative="1" as="geometry">
            <mxPoint x="495" y="2809" as="targetPoint" />
          </mxGeometry>
        </mxCell>
        <mxCell id="OXkeITvEiFGcZiVfPP6o-36" value="update user profile" style="html=1;verticalAlign=bottom;endArrow=block;entryX=0;entryY=0;rounded=0;" parent="1" target="OXkeITvEiFGcZiVfPP6o-35" edge="1">
          <mxGeometry relative="1" as="geometry">
            <mxPoint x="575" y="2743" as="sourcePoint" />
          </mxGeometry>
        </mxCell>
        <mxCell id="OXkeITvEiFGcZiVfPP6o-37" value="return" style="html=1;verticalAlign=bottom;endArrow=open;dashed=1;endSize=8;exitX=0;exitY=0.95;rounded=0;" parent="1" source="OXkeITvEiFGcZiVfPP6o-35" target="OXkeITvEiFGcZiVfPP6o-32" edge="1">
          <mxGeometry relative="1" as="geometry">
            <mxPoint x="575" y="2819" as="targetPoint" />
          </mxGeometry>
        </mxCell>
        <mxCell id="OXkeITvEiFGcZiVfPP6o-39" value="update token info(atomic)" style="html=1;verticalAlign=bottom;endArrow=block;entryX=0;entryY=0;rounded=0;" parent="1" target="OXkeITvEiFGcZiVfPP6o-38" edge="1">
          <mxGeometry relative="1" as="geometry">
            <mxPoint x="575" y="2815" as="sourcePoint" />
          </mxGeometry>
        </mxCell>
        <mxCell id="OXkeITvEiFGcZiVfPP6o-40" value="return" style="html=1;verticalAlign=bottom;endArrow=open;dashed=1;endSize=8;rounded=0;" parent="1" edge="1">
          <mxGeometry relative="1" as="geometry">
            <mxPoint x="575" y="2840" as="targetPoint" />
            <mxPoint x="769.5" y="2840" as="sourcePoint" />
          </mxGeometry>
        </mxCell>
        <mxCell id="OXkeITvEiFGcZiVfPP6o-41" value="return updated user info" style="html=1;verticalAlign=bottom;endArrow=open;dashed=1;endSize=8;rounded=0;" parent="1" edge="1">
          <mxGeometry relative="1" as="geometry">
            <mxPoint x="405" y="2938" as="sourcePoint" />
            <mxPoint x="205" y="2938" as="targetPoint" />
          </mxGeometry>
        </mxCell>
        <mxCell id="OXkeITvEiFGcZiVfPP6o-42" value="Flow3:&amp;nbsp; Logout Flow" style="text;html=1;strokeColor=none;fillColor=none;align=center;verticalAlign=middle;whiteSpace=wrap;rounded=0;" parent="1" vertex="1">
          <mxGeometry x="160" y="1848" width="200" height="30" as="geometry" />
        </mxCell>
        <mxCell id="OXkeITvEiFGcZiVfPP6o-43" value="" style="shape=umlLifeline;participant=umlActor;perimeter=lifelinePerimeter;whiteSpace=wrap;html=1;container=1;collapsible=0;recursiveResize=0;verticalAlign=top;spacingTop=36;outlineConnect=0;" parent="1" vertex="1">
          <mxGeometry x="190" y="1908" width="20" height="320" as="geometry" />
        </mxCell>
        <mxCell id="OXkeITvEiFGcZiVfPP6o-44" value="" style="html=1;points=[];perimeter=orthogonalPerimeter;" parent="OXkeITvEiFGcZiVfPP6o-43" vertex="1">
          <mxGeometry x="5" y="90" width="10" height="180" as="geometry" />
        </mxCell>
        <mxCell id="OXkeITvEiFGcZiVfPP6o-45" value="HTTP Server" style="shape=umlLifeline;perimeter=lifelinePerimeter;whiteSpace=wrap;html=1;container=1;collapsible=0;recursiveResize=0;outlineConnect=0;" parent="1" vertex="1">
          <mxGeometry x="360" y="1918" width="100" height="310" as="geometry" />
        </mxCell>
        <mxCell id="OXkeITvEiFGcZiVfPP6o-46" value="" style="html=1;points=[];perimeter=orthogonalPerimeter;" parent="OXkeITvEiFGcZiVfPP6o-45" vertex="1">
          <mxGeometry x="45" y="80" width="10" height="150" as="geometry" />
        </mxCell>
        <mxCell id="OXkeITvEiFGcZiVfPP6o-47" value="TCP Server" style="shape=umlLifeline;perimeter=lifelinePerimeter;whiteSpace=wrap;html=1;container=1;collapsible=0;recursiveResize=0;outlineConnect=0;" parent="1" vertex="1">
          <mxGeometry x="520" y="1918" width="100" height="310" as="geometry" />
        </mxCell>
        <mxCell id="OXkeITvEiFGcZiVfPP6o-48" value="" style="html=1;points=[];perimeter=orthogonalPerimeter;" parent="OXkeITvEiFGcZiVfPP6o-47" vertex="1">
          <mxGeometry x="45" y="80" width="10" height="150" as="geometry" />
        </mxCell>
        <mxCell id="OXkeITvEiFGcZiVfPP6o-49" value="del token" style="html=1;verticalAlign=bottom;endArrow=block;rounded=0;entryX=0;entryY=0.175;entryDx=0;entryDy=0;entryPerimeter=0;" parent="OXkeITvEiFGcZiVfPP6o-47" target="OXkeITvEiFGcZiVfPP6o-53" edge="1">
          <mxGeometry width="80" relative="1" as="geometry">
            <mxPoint x="55" y="130" as="sourcePoint" />
            <mxPoint x="135" y="130" as="targetPoint" />
          </mxGeometry>
        </mxCell>
        <mxCell id="OXkeITvEiFGcZiVfPP6o-51" value="Logout" style="html=1;verticalAlign=bottom;endArrow=block;rounded=0;exitX=1.1;exitY=0.363;exitDx=0;exitDy=0;exitPerimeter=0;" parent="1" edge="1">
          <mxGeometry width="80" relative="1" as="geometry">
            <mxPoint x="416" y="2024.8199999999997" as="sourcePoint" />
            <mxPoint x="565" y="2024.8199999999997" as="targetPoint" />
          </mxGeometry>
        </mxCell>
        <mxCell id="OXkeITvEiFGcZiVfPP6o-52" value="Redis" style="shape=umlLifeline;perimeter=lifelinePerimeter;whiteSpace=wrap;html=1;container=1;collapsible=0;recursiveResize=0;outlineConnect=0;" parent="1" vertex="1">
          <mxGeometry x="720" y="1918" width="100" height="320" as="geometry" />
        </mxCell>
        <mxCell id="OXkeITvEiFGcZiVfPP6o-53" value="" style="html=1;points=[];perimeter=orthogonalPerimeter;" parent="OXkeITvEiFGcZiVfPP6o-52" vertex="1">
          <mxGeometry x="45" y="115" width="10" height="80" as="geometry" />
        </mxCell>
        <mxCell id="OXkeITvEiFGcZiVfPP6o-54" value="return" style="html=1;verticalAlign=bottom;endArrow=open;dashed=1;endSize=8;rounded=0;entryX=1.2;entryY=0.6;entryDx=0;entryDy=0;entryPerimeter=0;" parent="OXkeITvEiFGcZiVfPP6o-52" target="OXkeITvEiFGcZiVfPP6o-48" edge="1">
          <mxGeometry relative="1" as="geometry">
            <mxPoint x="45" y="170" as="sourcePoint" />
            <mxPoint x="-35" y="170" as="targetPoint" />
          </mxGeometry>
        </mxCell>
        <mxCell id="OXkeITvEiFGcZiVfPP6o-56" value="return" style="html=1;verticalAlign=bottom;endArrow=open;dashed=1;endSize=8;rounded=0;exitX=0.1;exitY=0.77;exitDx=0;exitDy=0;exitPerimeter=0;" parent="1" source="OXkeITvEiFGcZiVfPP6o-48" target="OXkeITvEiFGcZiVfPP6o-46" edge="1">
          <mxGeometry relative="1" as="geometry">
            <mxPoint x="540" y="2078" as="sourcePoint" />
            <mxPoint x="460" y="2078" as="targetPoint" />
          </mxGeometry>
        </mxCell>
        <mxCell id="OXkeITvEiFGcZiVfPP6o-57" value="logout" style="html=1;verticalAlign=bottom;endArrow=block;rounded=0;" parent="1" source="OXkeITvEiFGcZiVfPP6o-44" edge="1">
          <mxGeometry width="80" relative="1" as="geometry">
            <mxPoint x="210" y="2018" as="sourcePoint" />
            <mxPoint x="405" y="2011.94" as="targetPoint" />
          </mxGeometry>
        </mxCell>
        <mxCell id="OXkeITvEiFGcZiVfPP6o-58" value="MySQL" style="shape=umlLifeline;perimeter=lifelinePerimeter;whiteSpace=wrap;html=1;container=1;collapsible=0;recursiveResize=0;outlineConnect=0;" parent="1" vertex="1">
          <mxGeometry x="890" y="1918" width="100" height="310" as="geometry" />
        </mxCell>
        <mxCell id="OXkeITvEiFGcZiVfPP6o-67" value="return" style="html=1;verticalAlign=bottom;endArrow=open;dashed=1;endSize=8;rounded=0;" parent="1" edge="1">
          <mxGeometry relative="1" as="geometry">
            <mxPoint x="405" y="2133" as="sourcePoint" />
            <mxPoint x="205" y="2133" as="targetPoint" />
          </mxGeometry>
        </mxCell>
        <mxCell id="OXkeITvEiFGcZiVfPP6o-69" value="Flow1:&amp;nbsp; Register Flow" style="text;html=1;strokeColor=none;fillColor=none;align=center;verticalAlign=middle;whiteSpace=wrap;rounded=0;" parent="1" vertex="1">
          <mxGeometry x="180" y="-22" width="200" height="30" as="geometry" />
        </mxCell>
        <mxCell id="OXkeITvEiFGcZiVfPP6o-70" value="" style="shape=umlLifeline;participant=umlActor;perimeter=lifelinePerimeter;whiteSpace=wrap;html=1;container=1;collapsible=0;recursiveResize=0;verticalAlign=top;spacingTop=36;outlineConnect=0;" parent="1" vertex="1">
          <mxGeometry x="210" y="38" width="20" height="650" as="geometry" />
        </mxCell>
        <mxCell id="OXkeITvEiFGcZiVfPP6o-71" value="" style="html=1;points=[];perimeter=orthogonalPerimeter;" parent="OXkeITvEiFGcZiVfPP6o-70" vertex="1">
          <mxGeometry x="5" y="90" width="10" height="490" as="geometry" />
        </mxCell>
        <mxCell id="OXkeITvEiFGcZiVfPP6o-72" value="HTTP Server" style="shape=umlLifeline;perimeter=lifelinePerimeter;whiteSpace=wrap;html=1;container=1;collapsible=0;recursiveResize=0;outlineConnect=0;" parent="1" vertex="1">
          <mxGeometry x="380" y="48" width="100" height="640" as="geometry" />
        </mxCell>
        <mxCell id="OXkeITvEiFGcZiVfPP6o-73" value="" style="html=1;points=[];perimeter=orthogonalPerimeter;" parent="OXkeITvEiFGcZiVfPP6o-72" vertex="1">
          <mxGeometry x="45" y="80" width="10" height="470" as="geometry" />
        </mxCell>
        <mxCell id="OXkeITvEiFGcZiVfPP6o-74" value="TCP Server" style="shape=umlLifeline;perimeter=lifelinePerimeter;whiteSpace=wrap;html=1;container=1;collapsible=0;recursiveResize=0;outlineConnect=0;" parent="1" vertex="1">
          <mxGeometry x="540" y="48" width="100" height="640" as="geometry" />
        </mxCell>
        <mxCell id="OXkeITvEiFGcZiVfPP6o-75" value="" style="html=1;points=[];perimeter=orthogonalPerimeter;" parent="OXkeITvEiFGcZiVfPP6o-74" vertex="1">
          <mxGeometry x="45" y="80" width="10" height="150" as="geometry" />
        </mxCell>
        <mxCell id="OXkeITvEiFGcZiVfPP6o-76" value="get token" style="html=1;verticalAlign=bottom;endArrow=block;rounded=0;entryX=0;entryY=0.175;entryDx=0;entryDy=0;entryPerimeter=0;" parent="OXkeITvEiFGcZiVfPP6o-74" target="OXkeITvEiFGcZiVfPP6o-79" edge="1">
          <mxGeometry width="80" relative="1" as="geometry">
            <mxPoint x="55" y="130" as="sourcePoint" />
            <mxPoint x="135" y="130" as="targetPoint" />
          </mxGeometry>
        </mxCell>
        <mxCell id="OXkeITvEiFGcZiVfPP6o-85" value="" style="html=1;points=[];perimeter=orthogonalPerimeter;" parent="OXkeITvEiFGcZiVfPP6o-74" vertex="1">
          <mxGeometry x="45" y="270" width="10" height="170" as="geometry" />
        </mxCell>
        <mxCell id="OXkeITvEiFGcZiVfPP6o-77" value="GetSession" style="html=1;verticalAlign=bottom;endArrow=block;rounded=0;exitX=1.1;exitY=0.363;exitDx=0;exitDy=0;exitPerimeter=0;" parent="1" edge="1">
          <mxGeometry width="80" relative="1" as="geometry">
            <mxPoint x="436" y="154.8199999999997" as="sourcePoint" />
            <mxPoint x="585" y="154.8199999999997" as="targetPoint" />
          </mxGeometry>
        </mxCell>
        <mxCell id="OXkeITvEiFGcZiVfPP6o-78" value="Redis" style="shape=umlLifeline;perimeter=lifelinePerimeter;whiteSpace=wrap;html=1;container=1;collapsible=0;recursiveResize=0;outlineConnect=0;" parent="1" vertex="1">
          <mxGeometry x="740" y="48" width="100" height="640" as="geometry" />
        </mxCell>
        <mxCell id="OXkeITvEiFGcZiVfPP6o-79" value="" style="html=1;points=[];perimeter=orthogonalPerimeter;" parent="OXkeITvEiFGcZiVfPP6o-78" vertex="1">
          <mxGeometry x="45" y="115" width="10" height="80" as="geometry" />
        </mxCell>
        <mxCell id="OXkeITvEiFGcZiVfPP6o-80" value="not existed" style="html=1;verticalAlign=bottom;endArrow=open;dashed=1;endSize=8;rounded=0;entryX=1.2;entryY=0.6;entryDx=0;entryDy=0;entryPerimeter=0;" parent="OXkeITvEiFGcZiVfPP6o-78" target="OXkeITvEiFGcZiVfPP6o-75" edge="1">
          <mxGeometry relative="1" as="geometry">
            <mxPoint x="45" y="170" as="sourcePoint" />
            <mxPoint x="-35" y="170" as="targetPoint" />
          </mxGeometry>
        </mxCell>
        <mxCell id="OXkeITvEiFGcZiVfPP6o-92" value="" style="html=1;points=[];perimeter=orthogonalPerimeter;" parent="OXkeITvEiFGcZiVfPP6o-78" vertex="1">
          <mxGeometry x="45" y="360" width="10" height="25" as="geometry" />
        </mxCell>
        <mxCell id="OXkeITvEiFGcZiVfPP6o-94" value="return" style="html=1;verticalAlign=bottom;endArrow=open;dashed=1;endSize=8;rounded=0;" parent="OXkeITvEiFGcZiVfPP6o-78" target="OXkeITvEiFGcZiVfPP6o-85" edge="1">
          <mxGeometry relative="1" as="geometry">
            <mxPoint x="-145" y="385" as="targetPoint" />
            <mxPoint x="49.5" y="385" as="sourcePoint" />
          </mxGeometry>
        </mxCell>
        <mxCell id="OXkeITvEiFGcZiVfPP6o-81" value="proceed" style="html=1;verticalAlign=bottom;endArrow=open;dashed=1;endSize=8;rounded=0;exitX=0.1;exitY=0.77;exitDx=0;exitDy=0;exitPerimeter=0;" parent="1" source="OXkeITvEiFGcZiVfPP6o-75" target="OXkeITvEiFGcZiVfPP6o-73" edge="1">
          <mxGeometry relative="1" as="geometry">
            <mxPoint x="560" y="208" as="sourcePoint" />
            <mxPoint x="480" y="208" as="targetPoint" />
          </mxGeometry>
        </mxCell>
        <mxCell id="OXkeITvEiFGcZiVfPP6o-82" value="register username/hash_password" style="html=1;verticalAlign=bottom;endArrow=block;rounded=0;" parent="1" source="OXkeITvEiFGcZiVfPP6o-71" edge="1">
          <mxGeometry width="80" relative="1" as="geometry">
            <mxPoint x="230" y="148" as="sourcePoint" />
            <mxPoint x="425" y="141.94000000000005" as="targetPoint" />
          </mxGeometry>
        </mxCell>
        <mxCell id="OXkeITvEiFGcZiVfPP6o-83" value="MySQL" style="shape=umlLifeline;perimeter=lifelinePerimeter;whiteSpace=wrap;html=1;container=1;collapsible=0;recursiveResize=0;outlineConnect=0;" parent="1" vertex="1">
          <mxGeometry x="910" y="48" width="100" height="640" as="geometry" />
        </mxCell>
        <mxCell id="OXkeITvEiFGcZiVfPP6o-89" value="" style="html=1;points=[];perimeter=orthogonalPerimeter;" parent="OXkeITvEiFGcZiVfPP6o-83" vertex="1">
          <mxGeometry x="45" y="280" width="10" height="30" as="geometry" />
        </mxCell>
        <mxCell id="OXkeITvEiFGcZiVfPP6o-86" value="Register" style="html=1;verticalAlign=bottom;endArrow=block;entryX=0;entryY=0;rounded=0;" parent="1" source="OXkeITvEiFGcZiVfPP6o-73" target="OXkeITvEiFGcZiVfPP6o-85" edge="1">
          <mxGeometry relative="1" as="geometry">
            <mxPoint x="515" y="318" as="sourcePoint" />
          </mxGeometry>
        </mxCell>
        <mxCell id="OXkeITvEiFGcZiVfPP6o-87" value="return" style="html=1;verticalAlign=bottom;endArrow=open;dashed=1;endSize=8;exitX=0;exitY=0.95;rounded=0;" parent="1" source="OXkeITvEiFGcZiVfPP6o-85" target="OXkeITvEiFGcZiVfPP6o-73" edge="1">
          <mxGeometry relative="1" as="geometry">
            <mxPoint x="515" y="394" as="targetPoint" />
          </mxGeometry>
        </mxCell>
        <mxCell id="OXkeITvEiFGcZiVfPP6o-90" value="create the user, fail if unique key duplciate" style="html=1;verticalAlign=bottom;endArrow=block;entryX=0;entryY=0;rounded=0;" parent="1" source="OXkeITvEiFGcZiVfPP6o-85" target="OXkeITvEiFGcZiVfPP6o-89" edge="1">
          <mxGeometry relative="1" as="geometry">
            <mxPoint x="880" y="308" as="sourcePoint" />
          </mxGeometry>
        </mxCell>
        <mxCell id="OXkeITvEiFGcZiVfPP6o-91" value="return" style="html=1;verticalAlign=bottom;endArrow=open;dashed=1;endSize=8;exitX=0;exitY=0.95;rounded=0;" parent="1" source="OXkeITvEiFGcZiVfPP6o-89" target="OXkeITvEiFGcZiVfPP6o-85" edge="1">
          <mxGeometry relative="1" as="geometry">
            <mxPoint x="880" y="384" as="targetPoint" />
          </mxGeometry>
        </mxCell>
        <mxCell id="OXkeITvEiFGcZiVfPP6o-93" value="update token info(atomic)" style="html=1;verticalAlign=bottom;endArrow=block;entryX=0;entryY=0;rounded=0;" parent="1" source="OXkeITvEiFGcZiVfPP6o-85" target="OXkeITvEiFGcZiVfPP6o-92" edge="1">
          <mxGeometry relative="1" as="geometry">
            <mxPoint x="595" y="408" as="sourcePoint" />
          </mxGeometry>
        </mxCell>
        <mxCell id="OXkeITvEiFGcZiVfPP6o-95" value="redirect to /welcome" style="html=1;verticalAlign=bottom;endArrow=open;dashed=1;endSize=8;rounded=0;" parent="1" source="OXkeITvEiFGcZiVfPP6o-73" target="OXkeITvEiFGcZiVfPP6o-71" edge="1">
          <mxGeometry relative="1" as="geometry">
            <mxPoint x="365" y="518" as="sourcePoint" />
            <mxPoint x="285" y="518" as="targetPoint" />
            <Array as="points">
              <mxPoint x="385" y="568" />
            </Array>
          </mxGeometry>
        </mxCell>
        <mxCell id="2OmDjz4qiAfVKCWLP8hH-1" value="Flow5:&amp;nbsp; Upload File Flow" style="text;html=1;strokeColor=none;fillColor=none;align=center;verticalAlign=middle;whiteSpace=wrap;rounded=0;" vertex="1" parent="1">
          <mxGeometry x="172" y="3141" width="200" height="30" as="geometry" />
        </mxCell>
        <mxCell id="2OmDjz4qiAfVKCWLP8hH-2" value="" style="shape=umlLifeline;participant=umlActor;perimeter=lifelinePerimeter;whiteSpace=wrap;html=1;container=1;collapsible=0;recursiveResize=0;verticalAlign=top;spacingTop=36;outlineConnect=0;" vertex="1" parent="1">
          <mxGeometry x="192" y="3221" width="20" height="444" as="geometry" />
        </mxCell>
        <mxCell id="2OmDjz4qiAfVKCWLP8hH-3" value="" style="html=1;points=[];perimeter=orthogonalPerimeter;" vertex="1" parent="2OmDjz4qiAfVKCWLP8hH-2">
          <mxGeometry x="5" y="90" width="10" height="302" as="geometry" />
        </mxCell>
        <mxCell id="2OmDjz4qiAfVKCWLP8hH-4" value="HTTP Server" style="shape=umlLifeline;perimeter=lifelinePerimeter;whiteSpace=wrap;html=1;container=1;collapsible=0;recursiveResize=0;outlineConnect=0;" vertex="1" parent="1">
          <mxGeometry x="362" y="3231" width="100" height="435" as="geometry" />
        </mxCell>
        <mxCell id="2OmDjz4qiAfVKCWLP8hH-5" value="" style="html=1;points=[];perimeter=orthogonalPerimeter;" vertex="1" parent="2OmDjz4qiAfVKCWLP8hH-4">
          <mxGeometry x="45" y="80" width="10" height="292" as="geometry" />
        </mxCell>
        <mxCell id="2OmDjz4qiAfVKCWLP8hH-6" value="TCP Server" style="shape=umlLifeline;perimeter=lifelinePerimeter;whiteSpace=wrap;html=1;container=1;collapsible=0;recursiveResize=0;outlineConnect=0;" vertex="1" parent="1">
          <mxGeometry x="522" y="3231" width="100" height="439" as="geometry" />
        </mxCell>
        <mxCell id="2OmDjz4qiAfVKCWLP8hH-7" value="" style="html=1;points=[];perimeter=orthogonalPerimeter;" vertex="1" parent="2OmDjz4qiAfVKCWLP8hH-6">
          <mxGeometry x="45" y="80" width="10" height="150" as="geometry" />
        </mxCell>
        <mxCell id="2OmDjz4qiAfVKCWLP8hH-8" value="get token" style="html=1;verticalAlign=bottom;endArrow=block;rounded=0;entryX=0;entryY=0.175;entryDx=0;entryDy=0;entryPerimeter=0;" edge="1" parent="2OmDjz4qiAfVKCWLP8hH-6" target="2OmDjz4qiAfVKCWLP8hH-12">
          <mxGeometry width="80" relative="1" as="geometry">
            <mxPoint x="55" y="130" as="sourcePoint" />
            <mxPoint x="135" y="130" as="targetPoint" />
          </mxGeometry>
        </mxCell>
        <mxCell id="2OmDjz4qiAfVKCWLP8hH-10" value="GetSession" style="html=1;verticalAlign=bottom;endArrow=block;rounded=0;exitX=1.1;exitY=0.363;exitDx=0;exitDy=0;exitPerimeter=0;" edge="1" parent="1">
          <mxGeometry width="80" relative="1" as="geometry">
            <mxPoint x="418" y="3337.8199999999997" as="sourcePoint" />
            <mxPoint x="567" y="3337.8199999999997" as="targetPoint" />
          </mxGeometry>
        </mxCell>
        <mxCell id="2OmDjz4qiAfVKCWLP8hH-11" value="Redis" style="shape=umlLifeline;perimeter=lifelinePerimeter;whiteSpace=wrap;html=1;container=1;collapsible=0;recursiveResize=0;outlineConnect=0;" vertex="1" parent="1">
          <mxGeometry x="722" y="3231" width="100" height="435" as="geometry" />
        </mxCell>
        <mxCell id="2OmDjz4qiAfVKCWLP8hH-12" value="" style="html=1;points=[];perimeter=orthogonalPerimeter;" vertex="1" parent="2OmDjz4qiAfVKCWLP8hH-11">
          <mxGeometry x="45" y="115" width="10" height="80" as="geometry" />
        </mxCell>
        <mxCell id="2OmDjz4qiAfVKCWLP8hH-13" value="token existed" style="html=1;verticalAlign=bottom;endArrow=open;dashed=1;endSize=8;rounded=0;entryX=1.2;entryY=0.6;entryDx=0;entryDy=0;entryPerimeter=0;" edge="1" parent="2OmDjz4qiAfVKCWLP8hH-11" target="2OmDjz4qiAfVKCWLP8hH-7">
          <mxGeometry relative="1" as="geometry">
            <mxPoint x="45" y="170" as="sourcePoint" />
            <mxPoint x="-35" y="170" as="targetPoint" />
          </mxGeometry>
        </mxCell>
        <mxCell id="2OmDjz4qiAfVKCWLP8hH-15" value="valid" style="html=1;verticalAlign=bottom;endArrow=open;dashed=1;endSize=8;rounded=0;exitX=0.1;exitY=0.77;exitDx=0;exitDy=0;exitPerimeter=0;" edge="1" parent="1" source="2OmDjz4qiAfVKCWLP8hH-7" target="2OmDjz4qiAfVKCWLP8hH-5">
          <mxGeometry relative="1" as="geometry">
            <mxPoint x="542" y="3391" as="sourcePoint" />
            <mxPoint x="462" y="3391" as="targetPoint" />
          </mxGeometry>
        </mxCell>
        <mxCell id="2OmDjz4qiAfVKCWLP8hH-16" value="upload file" style="html=1;verticalAlign=bottom;endArrow=block;rounded=0;" edge="1" parent="1" source="2OmDjz4qiAfVKCWLP8hH-3">
          <mxGeometry width="80" relative="1" as="geometry">
            <mxPoint x="212" y="3331" as="sourcePoint" />
            <mxPoint x="407" y="3324.9400000000005" as="targetPoint" />
          </mxGeometry>
        </mxCell>
        <mxCell id="2OmDjz4qiAfVKCWLP8hH-17" value="Disk" style="shape=umlLifeline;perimeter=lifelinePerimeter;whiteSpace=wrap;html=1;container=1;collapsible=0;recursiveResize=0;outlineConnect=0;" vertex="1" parent="1">
          <mxGeometry x="892" y="3231" width="100" height="441" as="geometry" />
        </mxCell>
        <mxCell id="2OmDjz4qiAfVKCWLP8hH-18" value="" style="html=1;points=[];perimeter=orthogonalPerimeter;" vertex="1" parent="2OmDjz4qiAfVKCWLP8hH-17">
          <mxGeometry x="45" y="300" width="10" height="30" as="geometry" />
        </mxCell>
        <mxCell id="2OmDjz4qiAfVKCWLP8hH-21" value="persist to filesystem" style="html=1;verticalAlign=bottom;endArrow=block;entryX=0;entryY=0;rounded=0;" edge="1" parent="1" target="2OmDjz4qiAfVKCWLP8hH-18">
          <mxGeometry relative="1" as="geometry">
            <mxPoint x="417" y="3531" as="sourcePoint" />
          </mxGeometry>
        </mxCell>
        <mxCell id="2OmDjz4qiAfVKCWLP8hH-22" value="return" style="html=1;verticalAlign=bottom;endArrow=open;dashed=1;endSize=8;exitX=0;exitY=0.95;rounded=0;" edge="1" parent="1" source="2OmDjz4qiAfVKCWLP8hH-18">
          <mxGeometry relative="1" as="geometry">
            <mxPoint x="417" y="3559.5" as="targetPoint" />
          </mxGeometry>
        </mxCell>
        <mxCell id="2OmDjz4qiAfVKCWLP8hH-25" value="return filename" style="html=1;verticalAlign=bottom;endArrow=open;dashed=1;endSize=8;rounded=0;" edge="1" parent="1">
          <mxGeometry relative="1" as="geometry">
            <mxPoint x="407" y="3580" as="sourcePoint" />
            <mxPoint x="207" y="3580" as="targetPoint" />
            <Array as="points">
              <mxPoint x="345" y="3580" />
            </Array>
          </mxGeometry>
        </mxCell>
        <mxCell id="2OmDjz4qiAfVKCWLP8hH-26" value="" style="html=1;points=[];perimeter=orthogonalPerimeter;" vertex="1" parent="1">
          <mxGeometry x="484" y="3471" width="10" height="38" as="geometry" />
        </mxCell>
        <mxCell id="2OmDjz4qiAfVKCWLP8hH-27" value="generate filename" style="html=1;verticalAlign=bottom;endArrow=block;entryX=0;entryY=0;rounded=0;" edge="1" target="2OmDjz4qiAfVKCWLP8hH-26" parent="1">
          <mxGeometry relative="1" as="geometry">
            <mxPoint x="417" y="3471" as="sourcePoint" />
          </mxGeometry>
        </mxCell>
        <mxCell id="2OmDjz4qiAfVKCWLP8hH-28" value="return" style="html=1;verticalAlign=bottom;endArrow=open;dashed=1;endSize=8;rounded=0;" edge="1" source="2OmDjz4qiAfVKCWLP8hH-26" parent="1">
          <mxGeometry relative="1" as="geometry">
            <mxPoint x="417" y="3505" as="targetPoint" />
            <mxPoint x="484" y="3557" as="sourcePoint" />
            <Array as="points">
              <mxPoint x="455" y="3505" />
            </Array>
          </mxGeometry>
        </mxCell>
      </root>
    </mxGraphModel>
  </diagram>
  <diagram id="l5SDV0JIYeZI4bmtEec2" name="Table Design">
    <mxGraphModel dx="1298" dy="834" grid="0" gridSize="10" guides="1" tooltips="1" connect="1" arrows="1" fold="1" page="0" pageScale="1" pageWidth="850" pageHeight="1100" math="0" shadow="0">
      <root>
        <mxCell id="c-RHkiKmaKiJxdXlLlEN-0" />
        <mxCell id="c-RHkiKmaKiJxdXlLlEN-1" parent="c-RHkiKmaKiJxdXlLlEN-0" />
        <mxCell id="Mvaa8v8gdhJ47MhYbEdy-0" value="User" style="shape=table;startSize=30;container=1;collapsible=1;childLayout=tableLayout;fixedRows=1;rowLines=0;fontStyle=1;align=center;resizeLast=1;" parent="c-RHkiKmaKiJxdXlLlEN-1" vertex="1">
          <mxGeometry x="120" y="310" width="180" height="240" as="geometry" />
        </mxCell>
        <mxCell id="Mvaa8v8gdhJ47MhYbEdy-1" value="" style="shape=partialRectangle;collapsible=0;dropTarget=0;pointerEvents=0;fillColor=none;top=0;left=0;bottom=1;right=0;points=[[0,0.5],[1,0.5]];portConstraint=eastwest;" parent="Mvaa8v8gdhJ47MhYbEdy-0" vertex="1">
          <mxGeometry y="30" width="180" height="30" as="geometry" />
        </mxCell>
        <mxCell id="Mvaa8v8gdhJ47MhYbEdy-2" value="PK" style="shape=partialRectangle;connectable=0;fillColor=none;top=0;left=0;bottom=0;right=0;fontStyle=1;overflow=hidden;" parent="Mvaa8v8gdhJ47MhYbEdy-1" vertex="1">
          <mxGeometry width="30" height="30" as="geometry">
            <mxRectangle width="30" height="30" as="alternateBounds" />
          </mxGeometry>
        </mxCell>
        <mxCell id="Mvaa8v8gdhJ47MhYbEdy-3" value="ID" style="shape=partialRectangle;connectable=0;fillColor=none;top=0;left=0;bottom=0;right=0;align=left;spacingLeft=6;fontStyle=5;overflow=hidden;" parent="Mvaa8v8gdhJ47MhYbEdy-1" vertex="1">
          <mxGeometry x="30" width="150" height="30" as="geometry">
            <mxRectangle width="150" height="30" as="alternateBounds" />
          </mxGeometry>
        </mxCell>
        <mxCell id="Mvaa8v8gdhJ47MhYbEdy-4" value="" style="shape=partialRectangle;collapsible=0;dropTarget=0;pointerEvents=0;fillColor=none;top=0;left=0;bottom=0;right=0;points=[[0,0.5],[1,0.5]];portConstraint=eastwest;" parent="Mvaa8v8gdhJ47MhYbEdy-0" vertex="1">
          <mxGeometry y="60" width="180" height="30" as="geometry" />
        </mxCell>
        <mxCell id="Mvaa8v8gdhJ47MhYbEdy-5" value="Uniq" style="shape=partialRectangle;connectable=0;fillColor=none;top=0;left=0;bottom=0;right=0;editable=1;overflow=hidden;" parent="Mvaa8v8gdhJ47MhYbEdy-4" vertex="1">
          <mxGeometry width="30" height="30" as="geometry">
            <mxRectangle width="30" height="30" as="alternateBounds" />
          </mxGeometry>
        </mxCell>
        <mxCell id="Mvaa8v8gdhJ47MhYbEdy-6" value="user_name" style="shape=partialRectangle;connectable=0;fillColor=none;top=0;left=0;bottom=0;right=0;align=left;spacingLeft=6;overflow=hidden;" parent="Mvaa8v8gdhJ47MhYbEdy-4" vertex="1">
          <mxGeometry x="30" width="150" height="30" as="geometry">
            <mxRectangle width="150" height="30" as="alternateBounds" />
          </mxGeometry>
        </mxCell>
        <mxCell id="Mvaa8v8gdhJ47MhYbEdy-7" value="" style="shape=partialRectangle;collapsible=0;dropTarget=0;pointerEvents=0;fillColor=none;top=0;left=0;bottom=0;right=0;points=[[0,0.5],[1,0.5]];portConstraint=eastwest;" parent="Mvaa8v8gdhJ47MhYbEdy-0" vertex="1">
          <mxGeometry y="90" width="180" height="30" as="geometry" />
        </mxCell>
        <mxCell id="Mvaa8v8gdhJ47MhYbEdy-8" value="" style="shape=partialRectangle;connectable=0;fillColor=none;top=0;left=0;bottom=0;right=0;editable=1;overflow=hidden;" parent="Mvaa8v8gdhJ47MhYbEdy-7" vertex="1">
          <mxGeometry width="30" height="30" as="geometry">
            <mxRectangle width="30" height="30" as="alternateBounds" />
          </mxGeometry>
        </mxCell>
        <mxCell id="Mvaa8v8gdhJ47MhYbEdy-9" value="password_hash" style="shape=partialRectangle;connectable=0;fillColor=none;top=0;left=0;bottom=0;right=0;align=left;spacingLeft=6;overflow=hidden;" parent="Mvaa8v8gdhJ47MhYbEdy-7" vertex="1">
          <mxGeometry x="30" width="150" height="30" as="geometry">
            <mxRectangle width="150" height="30" as="alternateBounds" />
          </mxGeometry>
        </mxCell>
        <mxCell id="Mvaa8v8gdhJ47MhYbEdy-10" value="" style="shape=partialRectangle;collapsible=0;dropTarget=0;pointerEvents=0;fillColor=none;top=0;left=0;bottom=0;right=0;points=[[0,0.5],[1,0.5]];portConstraint=eastwest;" parent="Mvaa8v8gdhJ47MhYbEdy-0" vertex="1">
          <mxGeometry y="120" width="180" height="30" as="geometry" />
        </mxCell>
        <mxCell id="Mvaa8v8gdhJ47MhYbEdy-11" value="" style="shape=partialRectangle;connectable=0;fillColor=none;top=0;left=0;bottom=0;right=0;editable=1;overflow=hidden;" parent="Mvaa8v8gdhJ47MhYbEdy-10" vertex="1">
          <mxGeometry width="30" height="30" as="geometry">
            <mxRectangle width="30" height="30" as="alternateBounds" />
          </mxGeometry>
        </mxCell>
        <mxCell id="Mvaa8v8gdhJ47MhYbEdy-12" value="avatar" style="shape=partialRectangle;connectable=0;fillColor=none;top=0;left=0;bottom=0;right=0;align=left;spacingLeft=6;overflow=hidden;" parent="Mvaa8v8gdhJ47MhYbEdy-10" vertex="1">
          <mxGeometry x="30" width="150" height="30" as="geometry">
            <mxRectangle width="150" height="30" as="alternateBounds" />
          </mxGeometry>
        </mxCell>
        <mxCell id="Mvaa8v8gdhJ47MhYbEdy-17" value="" style="shape=partialRectangle;collapsible=0;dropTarget=0;pointerEvents=0;fillColor=none;top=0;left=0;bottom=0;right=0;points=[[0,0.5],[1,0.5]];portConstraint=eastwest;" parent="Mvaa8v8gdhJ47MhYbEdy-0" vertex="1">
          <mxGeometry y="150" width="180" height="30" as="geometry" />
        </mxCell>
        <mxCell id="Mvaa8v8gdhJ47MhYbEdy-18" value="" style="shape=partialRectangle;connectable=0;fillColor=none;top=0;left=0;bottom=0;right=0;editable=1;overflow=hidden;" parent="Mvaa8v8gdhJ47MhYbEdy-17" vertex="1">
          <mxGeometry width="30" height="30" as="geometry">
            <mxRectangle width="30" height="30" as="alternateBounds" />
          </mxGeometry>
        </mxCell>
        <mxCell id="Mvaa8v8gdhJ47MhYbEdy-19" value="nickname" style="shape=partialRectangle;connectable=0;fillColor=none;top=0;left=0;bottom=0;right=0;align=left;spacingLeft=6;overflow=hidden;" parent="Mvaa8v8gdhJ47MhYbEdy-17" vertex="1">
          <mxGeometry x="30" width="150" height="30" as="geometry">
            <mxRectangle width="150" height="30" as="alternateBounds" />
          </mxGeometry>
        </mxCell>
        <mxCell id="Mvaa8v8gdhJ47MhYbEdy-20" value="" style="shape=partialRectangle;collapsible=0;dropTarget=0;pointerEvents=0;fillColor=none;top=0;left=0;bottom=0;right=0;points=[[0,0.5],[1,0.5]];portConstraint=eastwest;" parent="Mvaa8v8gdhJ47MhYbEdy-0" vertex="1">
          <mxGeometry y="180" width="180" height="30" as="geometry" />
        </mxCell>
        <mxCell id="Mvaa8v8gdhJ47MhYbEdy-21" value="" style="shape=partialRectangle;connectable=0;fillColor=none;top=0;left=0;bottom=0;right=0;editable=1;overflow=hidden;" parent="Mvaa8v8gdhJ47MhYbEdy-20" vertex="1">
          <mxGeometry width="30" height="30" as="geometry">
            <mxRectangle width="30" height="30" as="alternateBounds" />
          </mxGeometry>
        </mxCell>
        <mxCell id="Mvaa8v8gdhJ47MhYbEdy-22" value="create_time" style="shape=partialRectangle;connectable=0;fillColor=none;top=0;left=0;bottom=0;right=0;align=left;spacingLeft=6;overflow=hidden;" parent="Mvaa8v8gdhJ47MhYbEdy-20" vertex="1">
          <mxGeometry x="30" width="150" height="30" as="geometry">
            <mxRectangle width="150" height="30" as="alternateBounds" />
          </mxGeometry>
        </mxCell>
        <mxCell id="Mvaa8v8gdhJ47MhYbEdy-23" value="" style="shape=partialRectangle;collapsible=0;dropTarget=0;pointerEvents=0;fillColor=none;top=0;left=0;bottom=0;right=0;points=[[0,0.5],[1,0.5]];portConstraint=eastwest;" parent="Mvaa8v8gdhJ47MhYbEdy-0" vertex="1">
          <mxGeometry y="210" width="180" height="30" as="geometry" />
        </mxCell>
        <mxCell id="Mvaa8v8gdhJ47MhYbEdy-24" value="" style="shape=partialRectangle;connectable=0;fillColor=none;top=0;left=0;bottom=0;right=0;editable=1;overflow=hidden;" parent="Mvaa8v8gdhJ47MhYbEdy-23" vertex="1">
          <mxGeometry width="30" height="30" as="geometry">
            <mxRectangle width="30" height="30" as="alternateBounds" />
          </mxGeometry>
        </mxCell>
        <mxCell id="Mvaa8v8gdhJ47MhYbEdy-25" value="update_time" style="shape=partialRectangle;connectable=0;fillColor=none;top=0;left=0;bottom=0;right=0;align=left;spacingLeft=6;overflow=hidden;" parent="Mvaa8v8gdhJ47MhYbEdy-23" vertex="1">
          <mxGeometry x="30" width="150" height="30" as="geometry">
            <mxRectangle width="150" height="30" as="alternateBounds" />
          </mxGeometry>
        </mxCell>
        <mxCell id="Mvaa8v8gdhJ47MhYbEdy-26" value="token:{token}" style="swimlane;fontStyle=0;childLayout=stackLayout;horizontal=1;startSize=26;fillColor=none;horizontalStack=0;resizeParent=1;resizeParentMax=0;resizeLast=0;collapsible=1;marginBottom=0;" parent="c-RHkiKmaKiJxdXlLlEN-1" vertex="1">
          <mxGeometry x="497" y="341" width="140" height="104" as="geometry" />
        </mxCell>
        <mxCell id="Mvaa8v8gdhJ47MhYbEdy-27" value="+ user_name" style="text;strokeColor=none;fillColor=none;align=left;verticalAlign=top;spacingLeft=4;spacingRight=4;overflow=hidden;rotatable=0;points=[[0,0.5],[1,0.5]];portConstraint=eastwest;" parent="Mvaa8v8gdhJ47MhYbEdy-26" vertex="1">
          <mxGeometry y="26" width="140" height="26" as="geometry" />
        </mxCell>
        <mxCell id="Mvaa8v8gdhJ47MhYbEdy-28" value="+ avatar" style="text;strokeColor=none;fillColor=none;align=left;verticalAlign=top;spacingLeft=4;spacingRight=4;overflow=hidden;rotatable=0;points=[[0,0.5],[1,0.5]];portConstraint=eastwest;" parent="Mvaa8v8gdhJ47MhYbEdy-26" vertex="1">
          <mxGeometry y="52" width="140" height="26" as="geometry" />
        </mxCell>
        <mxCell id="Mvaa8v8gdhJ47MhYbEdy-29" value="+ nickname" style="text;strokeColor=none;fillColor=none;align=left;verticalAlign=top;spacingLeft=4;spacingRight=4;overflow=hidden;rotatable=0;points=[[0,0.5],[1,0.5]];portConstraint=eastwest;" parent="Mvaa8v8gdhJ47MhYbEdy-26" vertex="1">
          <mxGeometry y="78" width="140" height="26" as="geometry" />
        </mxCell>
        <mxCell id="Mvaa8v8gdhJ47MhYbEdy-30" value="&amp;lt;&amp;lt;redis&amp;gt;&amp;gt;" style="text;html=1;strokeColor=none;fillColor=none;align=center;verticalAlign=middle;whiteSpace=wrap;rounded=0;" parent="c-RHkiKmaKiJxdXlLlEN-1" vertex="1">
          <mxGeometry x="497" y="311" width="60" height="30" as="geometry" />
        </mxCell>
      </root>
    </mxGraphModel>
  </diagram>
</mxfile>
